<?xml version="1.0" encoding="UTF-8" standalone="no"?>
<svg
    xmlns="http://www.w3.org/2000/svg"
    version="1.1"
    width="100%"
    height="100%"
    viewBox="0 0 443.14398 410.08402"
    style="fill:#3b3b3b"
    id="svg3128">
    <path
        d="m 443.14398,363.11804 -443.143997506991,0 c 0,32.086 24.448999506991,46.966 44.074999506991,46.966 l 354.999998,0 c 23.493,0 44.069,-18.463 44.069,-46.966 z"
        id="saucer" />
    <path
        d="m 345.9544,135.91805 0,21.54627 c 0.28289,0.0262 -2.51098,-0.10877 8.75,-0.10877 29.12267,0 54.15629,25.7929 54.15625,57.21875 0,30.77367 -21.48765,57.1875 -56.64194,57.1875 -5.25226,0 -1.84811,0.27241 -6.26431,0.0527 l 0,23.16606 0,0.0312 c 48.888,0 84.40625,-36.73525 84.40625,-79.53125 5e-5,-43.70295 -34.8125,-79.5625 -75.3125,-79.5625 z"
        id="handle" />
    <path
        d="m 104.7994,145.41325 0,159.67815 c 0,16.20153 10.5039,29.88775 24.26073,35.72997 2.29518,0.9731 4.68512,1.73076 7.12874,2.2421 2.44363,0.51134 4.9485,0.77611 7.47369,0.77611 l 157.75224,0 c 2.85115,0 5.58535,-0.3004 8.19231,-0.86234 2.60696,-0.56195 5.08549,-1.39235 7.4162,-2.44332 2.3307,-1.05097 4.50271,-2.32729 6.5251,-3.79434 2.02239,-1.46705 3.89449,-3.10519 5.57652,-4.91538 1.68202,-1.8102 3.17461,-3.78356 4.48421,-5.86397 1.3096,-2.08041 2.42929,-4.27616 3.33441,-6.55385 0.90512,-2.27768 1.60105,-4.64048 2.06964,-7.04251 0.46676,-2.39266 0.71674,-4.82865 0.71862,-7.27247 l 0,-13.33765 0,-0.0287 0,-146.3118 -234.93241,0 z"
        id="mug"
        style="fill:#254d25;stroke:#3b3b3b;stroke-width:19" />
    <g
        transform="matrix(2.5197281,0,0,2.5197281,-233.13046,-54.17786)"
        id="steam">
        <path
            d="m 158.27232,21.558036 c 0.13521,-0.428715 -4.98527,1.661465 -7.96875,3.5 -1.48,0.912047 -4.79654,3.937799 -5.65625,5.09375 -0.88834,1.194442 -1.65598,2.549596 -2.1875,3.9375 -0.53146,1.387687 -0.92939,2.897841 -1,4.375 -0.0711,1.487406 0.0852,3.097173 0.5625,4.5 0.49121,1.443628 1.42013,2.791934 2.34375,4.03125 0.94252,1.264624 2.2235,2.316742 3.28125,3.5 1.0328,1.155323 2.21693,2.218273 3,3.53125 0.78778,1.320881 1.40175,2.840514 1.6875,4.34375 0.25756,1.355032 0.16793,2.848022 -0.0625,4.21875 -0.23021,1.369425 -0.68661,2.759708 -1.3125,4 -0.6615,1.310886 -1.52083,2.589376 -2.53125,3.65625 -1.10374,1.165411 -3.92911,2.626722 -3.8125,3.0625 0.10778,0.402803 4.40332,-1.143087 5.8125,-1.75 1.22095,-0.525845 4.44312,-2.364202 5.46875,-3.28125 0.98224,-0.878227 2.00424,-1.76445 2.78125,-2.8125 0.74662,-1.007071 1.48442,-2.176437 1.78125,-3.375 0.32914,-1.328998 0.31311,-2.820674 0.0937,-4.1875 -0.24127,-1.503255 -0.81728,-3.014485 -1.46875,-4.40625 -0.64775,-1.383824 -1.52542,-2.680873 -2.40625,-3.9375 -0.89082,-1.270931 -1.91334,-2.45998 -2.90625,-3.65625 -0.96771,-1.165933 -2.16405,-2.17215 -2.96875,-3.4375 -0.82524,-1.297641 -1.71883,-2.774134 -1.9375,-4.25 -0.20653,-1.394213 0.19887,-2.97165 0.65625,-4.34375 0.47569,-1.427113 1.31341,-2.766985 2.15625,-4.03125 0.78707,-1.180616 1.82918,-2.198126 2.71875,-3.3125 1.30727,-1.637596 3.52596,-3.86203 3.875,-4.96875 z"
            id="path3045" />
        <path
            d="m 187.17723,21.558036 c 0.13521,-0.428715 -4.98527,1.661465 -7.96875,3.5 -1.48,0.912047 -4.79654,3.937799 -5.65625,5.09375 -0.88834,1.194442 -1.65598,2.549596 -2.1875,3.9375 -0.53146,1.387687 -0.92939,2.897841 -1,4.375 -0.0711,1.487406 0.0852,3.097173 0.5625,4.5 0.49121,1.443628 1.42013,2.791934 2.34375,4.03125 0.94252,1.264624 2.2235,2.316742 3.28125,3.5 1.0328,1.155323 2.21693,2.218273 3,3.53125 0.78778,1.320881 1.40175,2.840514 1.6875,4.34375 0.25756,1.355032 0.16793,2.848022 -0.0625,4.21875 -0.23021,1.369425 -0.68661,2.759708 -1.3125,4 -0.6615,1.310886 -1.52083,2.589376 -2.53125,3.65625 -1.10374,1.165411 -3.92911,2.626722 -3.8125,3.0625 0.10778,0.402803 4.40332,-1.143087 5.8125,-1.75 1.22095,-0.525845 4.44312,-2.364202 5.46875,-3.28125 0.98224,-0.878227 2.00424,-1.76445 2.78125,-2.8125 0.74662,-1.007071 1.48442,-2.176437 1.78125,-3.375 0.32914,-1.328998 0.31311,-2.820674 0.0937,-4.1875 -0.24127,-1.503255 -0.81728,-3.014485 -1.46875,-4.40625 -0.64775,-1.383824 -1.52542,-2.680873 -2.40625,-3.9375 -0.89082,-1.270931 -1.91334,-2.45998 -2.90625,-3.65625 -0.96771,-1.165933 -2.16405,-2.17215 -2.96875,-3.4375 -0.82524,-1.297641 -1.71883,-2.774134 -1.9375,-4.25 -0.20653,-1.394213 0.19887,-2.97165 0.65625,-4.34375 0.47569,-1.427113 1.31341,-2.766985 2.15625,-4.03125 0.78707,-1.180616 1.82918,-2.198126 2.71875,-3.3125 1.30727,-1.637596 3.52596,-3.86203 3.875,-4.96875 z"
            id="path3047" />
        <path
            d="m 216.08213,21.558036 c 0.13521,-0.428715 -4.98527,1.661465 -7.96875,3.5 -1.48,0.912047 -4.79654,3.937799 -5.65625,5.09375 -0.88834,1.194442 -1.65598,2.549596 -2.1875,3.9375 -0.53146,1.387687 -0.92939,2.897841 -1,4.375 -0.0711,1.487406 0.0852,3.097173 0.5625,4.5 0.49121,1.443628 1.42013,2.791934 2.34375,4.03125 0.94252,1.264624 2.2235,2.316742 3.28125,3.5 1.0328,1.155323 2.21693,2.218273 3,3.53125 0.78778,1.320881 1.40175,2.840514 1.6875,4.34375 0.25756,1.355032 0.16793,2.848022 -0.0625,4.21875 -0.23021,1.369425 -0.68661,2.759708 -1.3125,4 -0.6615,1.310886 -1.52083,2.589376 -2.53125,3.65625 -1.10374,1.165411 -3.92911,2.626722 -3.8125,3.0625 0.10778,0.402803 4.40332,-1.143087 5.8125,-1.75 1.22095,-0.525845 4.44312,-2.364202 5.46875,-3.28125 0.98224,-0.878227 2.00424,-1.76445 2.78125,-2.8125 0.74662,-1.007071 1.48442,-2.176437 1.78125,-3.375 0.32914,-1.328998 0.31311,-2.820674 0.0937,-4.1875 -0.24127,-1.503255 -0.81728,-3.014485 -1.46875,-4.40625 -0.64775,-1.383824 -1.52542,-2.680873 -2.40625,-3.9375 -0.89082,-1.270931 -1.91334,-2.45998 -2.90625,-3.65625 -0.96771,-1.165933 -2.16405,-2.17215 -2.96875,-3.4375 -0.82524,-1.297641 -1.71883,-2.774134 -1.9375,-4.25 -0.20653,-1.394213 0.19887,-2.97165 0.65625,-4.34375 0.47569,-1.427113 1.31341,-2.766985 2.15625,-4.03125 0.78707,-1.180616 1.82918,-2.198126 2.71875,-3.3125 1.30727,-1.637596 3.52596,-3.86203 3.875,-4.96875 z"
            id="path3049" />
    </g>
</svg>
