<?xml version="1.0" encoding="UTF-8" standalone="no"?>
<svg
   xmlns="http://www.w3.org/2000/svg"
   version="1.1"
   viewBox="0 0 443.14398 410.08402"
   style="fill:#254d25"
   id="svg3128">
  <path
     d="m 443.14398,363.11804 -443.143997506991,0 c 0,32.086 24.448999506991,46.966 44.074999506991,46.966 l 354.999998,0 c 23.493,0 44.069,-18.463 44.069,-46.966 z"
     style="fill:#3b3b3b"
     id="saucer" />
  <path
     d="m 349.66863,136.76704 0,32.59375 9.09375,0 0.0312,0.0312 c 33.484,0 44.21875,31.721 44.09375,47 -0.0153,24.93266 -18.38827,48.71781 -53.21875,46.46875 l 0,32.96875 0,0.0312 c 48.888,0 84.40625,-36.73525 84.40625,-79.53125 5e-5,-43.70295 -34.81245,-79.56245 -75.31245,-79.56245 l -9.09375,0 z"
     id="handle" />
  <path
     d="m 94.562482,136.76704 0,173.59375 c 0,17.61346 11.419288,32.4924 26.374998,38.84375 2.4952,1.05791 5.09342,1.8816 7.75,2.4375 2.65658,0.5559 5.37975,0.84375 8.125,0.84375 l 171.5,0 c 3.09962,0 6.0721,-0.32658 8.90625,-0.9375 2.83415,-0.61092 5.52868,-1.51369 8.0625,-2.65625 2.53382,-1.14256 4.89511,-2.5301 7.09375,-4.125 2.19864,-1.5949 4.23389,-3.3758 6.0625,-5.34375 1.82861,-1.96795 3.45127,-4.11329 4.875,-6.375 1.42373,-2.26171 2.641,-4.64882 3.625,-7.125 0.984,-2.47618 1.74057,-5.04489 2.25,-7.65625 0.50744,-2.60118 0.7792,-5.24946 0.78125,-7.90625 l 0,-14.5 0,-0.0312 0,-159.06255 -255.406248,0 z"
     id="mug" />
  <g
     transform="matrix(2.5197281,0,0,2.5197281,-233.13046,-54.17786)"
     style="fill:#3b3b3b"
     id="steam">
    <path
       d="m 158.27232,21.558036 c 0.13521,-0.428715 -4.98527,1.661465 -7.96875,3.5 -1.48,0.912047 -4.79654,3.937799 -5.65625,5.09375 -0.88834,1.194442 -1.65598,2.549596 -2.1875,3.9375 -0.53146,1.387687 -0.92939,2.897841 -1,4.375 -0.0711,1.487406 0.0852,3.097173 0.5625,4.5 0.49121,1.443628 1.42013,2.791934 2.34375,4.03125 0.94252,1.264624 2.2235,2.316742 3.28125,3.5 1.0328,1.155323 2.21693,2.218273 3,3.53125 0.78778,1.320881 1.40175,2.840514 1.6875,4.34375 0.25756,1.355032 0.16793,2.848022 -0.0625,4.21875 -0.23021,1.369425 -0.68661,2.759708 -1.3125,4 -0.6615,1.310886 -1.52083,2.589376 -2.53125,3.65625 -1.10374,1.165411 -3.92911,2.626722 -3.8125,3.0625 0.10778,0.402803 4.40332,-1.143087 5.8125,-1.75 1.22095,-0.525845 4.44312,-2.364202 5.46875,-3.28125 0.98224,-0.878227 2.00424,-1.76445 2.78125,-2.8125 0.74662,-1.007071 1.48442,-2.176437 1.78125,-3.375 0.32914,-1.328998 0.31311,-2.820674 0.0937,-4.1875 -0.24127,-1.503255 -0.81728,-3.014485 -1.46875,-4.40625 -0.64775,-1.383824 -1.52542,-2.680873 -2.40625,-3.9375 -0.89082,-1.270931 -1.91334,-2.45998 -2.90625,-3.65625 -0.96771,-1.165933 -2.16405,-2.17215 -2.96875,-3.4375 -0.82524,-1.297641 -1.71883,-2.774134 -1.9375,-4.25 -0.20653,-1.394213 0.19887,-2.97165 0.65625,-4.34375 0.47569,-1.427113 1.31341,-2.766985 2.15625,-4.03125 0.78707,-1.180616 1.82918,-2.198126 2.71875,-3.3125 1.30727,-1.637596 3.52596,-3.86203 3.875,-4.96875 z" />
    <path
       d="m 187.17723,21.558036 c 0.13521,-0.428715 -4.98527,1.661465 -7.96875,3.5 -1.48,0.912047 -4.79654,3.937799 -5.65625,5.09375 -0.88834,1.194442 -1.65598,2.549596 -2.1875,3.9375 -0.53146,1.387687 -0.92939,2.897841 -1,4.375 -0.0711,1.487406 0.0852,3.097173 0.5625,4.5 0.49121,1.443628 1.42013,2.791934 2.34375,4.03125 0.94252,1.264624 2.2235,2.316742 3.28125,3.5 1.0328,1.155323 2.21693,2.218273 3,3.53125 0.78778,1.320881 1.40175,2.840514 1.6875,4.34375 0.25756,1.355032 0.16793,2.848022 -0.0625,4.21875 -0.23021,1.369425 -0.68661,2.759708 -1.3125,4 -0.6615,1.310886 -1.52083,2.589376 -2.53125,3.65625 -1.10374,1.165411 -3.92911,2.626722 -3.8125,3.0625 0.10778,0.402803 4.40332,-1.143087 5.8125,-1.75 1.22095,-0.525845 4.44312,-2.364202 5.46875,-3.28125 0.98224,-0.878227 2.00424,-1.76445 2.78125,-2.8125 0.74662,-1.007071 1.48442,-2.176437 1.78125,-3.375 0.32914,-1.328998 0.31311,-2.820674 0.0937,-4.1875 -0.24127,-1.503255 -0.81728,-3.014485 -1.46875,-4.40625 -0.64775,-1.383824 -1.52542,-2.680873 -2.40625,-3.9375 -0.89082,-1.270931 -1.91334,-2.45998 -2.90625,-3.65625 -0.96771,-1.165933 -2.16405,-2.17215 -2.96875,-3.4375 -0.82524,-1.297641 -1.71883,-2.774134 -1.9375,-4.25 -0.20653,-1.394213 0.19887,-2.97165 0.65625,-4.34375 0.47569,-1.427113 1.31341,-2.766985 2.15625,-4.03125 0.78707,-1.180616 1.82918,-2.198126 2.71875,-3.3125 1.30727,-1.637596 3.52596,-3.86203 3.875,-4.96875 z" />
    <path
       d="m 216.08213,21.558036 c 0.13521,-0.428715 -4.98527,1.661465 -7.96875,3.5 -1.48,0.912047 -4.79654,3.937799 -5.65625,5.09375 -0.88834,1.194442 -1.65598,2.549596 -2.1875,3.9375 -0.53146,1.387687 -0.92939,2.897841 -1,4.375 -0.0711,1.487406 0.0852,3.097173 0.5625,4.5 0.49121,1.443628 1.42013,2.791934 2.34375,4.03125 0.94252,1.264624 2.2235,2.316742 3.28125,3.5 1.0328,1.155323 2.21693,2.218273 3,3.53125 0.78778,1.320881 1.40175,2.840514 1.6875,4.34375 0.25756,1.355032 0.16793,2.848022 -0.0625,4.21875 -0.23021,1.369425 -0.68661,2.759708 -1.3125,4 -0.6615,1.310886 -1.52083,2.589376 -2.53125,3.65625 -1.10374,1.165411 -3.92911,2.626722 -3.8125,3.0625 0.10778,0.402803 4.40332,-1.143087 5.8125,-1.75 1.22095,-0.525845 4.44312,-2.364202 5.46875,-3.28125 0.98224,-0.878227 2.00424,-1.76445 2.78125,-2.8125 0.74662,-1.007071 1.48442,-2.176437 1.78125,-3.375 0.32914,-1.328998 0.31311,-2.820674 0.0937,-4.1875 -0.24127,-1.503255 -0.81728,-3.014485 -1.46875,-4.40625 -0.64775,-1.383824 -1.52542,-2.680873 -2.40625,-3.9375 -0.89082,-1.270931 -1.91334,-2.45998 -2.90625,-3.65625 -0.96771,-1.165933 -2.16405,-2.17215 -2.96875,-3.4375 -0.82524,-1.297641 -1.71883,-2.774134 -1.9375,-4.25 -0.20653,-1.394213 0.19887,-2.97165 0.65625,-4.34375 0.47569,-1.427113 1.31341,-2.766985 2.15625,-4.03125 0.78707,-1.180616 1.82918,-2.198126 2.71875,-3.3125 1.30727,-1.637596 3.52596,-3.86203 3.875,-4.96875 z" />
  </g>
</svg>
